<mxfile host="app.diagrams.net" modified="2021-07-14T09:28:30.633Z" agent="5.0 (Windows NT 10.0; Win64; x64) AppleWebKit/537.36 (KHTML, like Gecko) Chrome/91.0.4472.124 Safari/537.36" etag="LhgtRdFrytOMZuGHr2QP" version="14.8.6" type="github">
  <diagram id="C5RBs43oDa-KdzZeNtuy" name="Page-1">
    <mxGraphModel dx="1250" dy="749" grid="1" gridSize="10" guides="1" tooltips="1" connect="1" arrows="1" fold="1" page="1" pageScale="1" pageWidth="827" pageHeight="1169" math="0" shadow="0">
      <root>
        <mxCell id="WIyWlLk6GJQsqaUBKTNV-0" />
        <mxCell id="WIyWlLk6GJQsqaUBKTNV-1" parent="WIyWlLk6GJQsqaUBKTNV-0" />
        <mxCell id="xR6CEr79wKUCBybBuscH-12" value="" style="edgeStyle=orthogonalEdgeStyle;rounded=0;orthogonalLoop=1;jettySize=auto;html=1;strokeColor=none;" parent="WIyWlLk6GJQsqaUBKTNV-1" edge="1">
          <mxGeometry relative="1" as="geometry">
            <mxPoint x="590" y="260" as="sourcePoint" />
            <mxPoint x="630" y="260" as="targetPoint" />
          </mxGeometry>
        </mxCell>
        <mxCell id="xR6CEr79wKUCBybBuscH-61" style="edgeStyle=orthogonalEdgeStyle;rounded=0;orthogonalLoop=1;jettySize=auto;html=1;exitX=1;exitY=0.5;exitDx=0;exitDy=0;exitPerimeter=0;endArrow=classicThin;endFill=0;entryX=0;entryY=0.5;entryDx=0;entryDy=0;" parent="WIyWlLk6GJQsqaUBKTNV-1" source="xR6CEr79wKUCBybBuscH-17" edge="1">
          <mxGeometry relative="1" as="geometry">
            <mxPoint x="859.9999999999998" y="260" as="targetPoint" />
          </mxGeometry>
        </mxCell>
        <mxCell id="xR6CEr79wKUCBybBuscH-71" style="edgeStyle=orthogonalEdgeStyle;rounded=0;orthogonalLoop=1;jettySize=auto;html=1;exitX=1;exitY=0.5;exitDx=0;exitDy=0;exitPerimeter=0;entryX=0;entryY=0.5;entryDx=0;entryDy=0;endArrow=classicThin;endFill=0;" parent="WIyWlLk6GJQsqaUBKTNV-1" source="xR6CEr79wKUCBybBuscH-17" target="xR6CEr79wKUCBybBuscH-67" edge="1">
          <mxGeometry relative="1" as="geometry" />
        </mxCell>
        <mxCell id="xR6CEr79wKUCBybBuscH-72" style="edgeStyle=orthogonalEdgeStyle;rounded=0;orthogonalLoop=1;jettySize=auto;html=1;exitX=1;exitY=0.5;exitDx=0;exitDy=0;exitPerimeter=0;entryX=0;entryY=0.5;entryDx=0;entryDy=0;endArrow=classicThin;endFill=0;" parent="WIyWlLk6GJQsqaUBKTNV-1" source="xR6CEr79wKUCBybBuscH-17" target="xR6CEr79wKUCBybBuscH-68" edge="1">
          <mxGeometry relative="1" as="geometry" />
        </mxCell>
        <mxCell id="xR6CEr79wKUCBybBuscH-73" style="edgeStyle=orthogonalEdgeStyle;rounded=0;orthogonalLoop=1;jettySize=auto;html=1;exitX=1;exitY=0.5;exitDx=0;exitDy=0;exitPerimeter=0;entryX=0;entryY=0.5;entryDx=0;entryDy=0;endArrow=classicThin;endFill=0;" parent="WIyWlLk6GJQsqaUBKTNV-1" source="xR6CEr79wKUCBybBuscH-17" target="xR6CEr79wKUCBybBuscH-69" edge="1">
          <mxGeometry relative="1" as="geometry" />
        </mxCell>
        <mxCell id="xR6CEr79wKUCBybBuscH-74" style="edgeStyle=orthogonalEdgeStyle;rounded=0;orthogonalLoop=1;jettySize=auto;html=1;exitX=1;exitY=0.5;exitDx=0;exitDy=0;exitPerimeter=0;entryX=0;entryY=0.5;entryDx=0;entryDy=0;endArrow=classicThin;endFill=0;" parent="WIyWlLk6GJQsqaUBKTNV-1" source="xR6CEr79wKUCBybBuscH-17" target="xR6CEr79wKUCBybBuscH-70" edge="1">
          <mxGeometry relative="1" as="geometry" />
        </mxCell>
        <mxCell id="xR6CEr79wKUCBybBuscH-17" value="회원 DB" style="shape=cylinder3;whiteSpace=wrap;html=1;boundedLbl=1;backgroundOutline=1;size=15;" parent="WIyWlLk6GJQsqaUBKTNV-1" vertex="1">
          <mxGeometry x="750" y="220" width="60" height="80" as="geometry" />
        </mxCell>
        <mxCell id="xR6CEr79wKUCBybBuscH-29" style="edgeStyle=orthogonalEdgeStyle;rounded=0;orthogonalLoop=1;jettySize=auto;html=1;exitX=0.5;exitY=1;exitDx=0;exitDy=0;endArrow=classicThin;endFill=0;" parent="WIyWlLk6GJQsqaUBKTNV-1" source="xR6CEr79wKUCBybBuscH-20" target="xR6CEr79wKUCBybBuscH-26" edge="1">
          <mxGeometry relative="1" as="geometry" />
        </mxCell>
        <mxCell id="xR6CEr79wKUCBybBuscH-20" value="메인 페이지" style="rounded=0;whiteSpace=wrap;html=1;" parent="WIyWlLk6GJQsqaUBKTNV-1" vertex="1">
          <mxGeometry x="150" y="59.99999999999999" width="100" height="40" as="geometry" />
        </mxCell>
        <mxCell id="xR6CEr79wKUCBybBuscH-31" style="edgeStyle=orthogonalEdgeStyle;rounded=0;orthogonalLoop=1;jettySize=auto;html=1;exitX=1;exitY=0.5;exitDx=0;exitDy=0;entryX=0;entryY=0.5;entryDx=0;entryDy=0;endArrow=classicThin;endFill=0;" parent="WIyWlLk6GJQsqaUBKTNV-1" target="xR6CEr79wKUCBybBuscH-24" edge="1">
          <mxGeometry relative="1" as="geometry">
            <mxPoint x="570" y="260" as="sourcePoint" />
          </mxGeometry>
        </mxCell>
        <mxCell id="xR6CEr79wKUCBybBuscH-48" style="edgeStyle=orthogonalEdgeStyle;rounded=0;orthogonalLoop=1;jettySize=auto;html=1;exitX=0.163;exitY=0.002;exitDx=0;exitDy=0;entryX=0;entryY=0.5;entryDx=0;entryDy=0;endArrow=classicThin;endFill=0;exitPerimeter=0;" parent="WIyWlLk6GJQsqaUBKTNV-1" source="xR6CEr79wKUCBybBuscH-23" target="xR6CEr79wKUCBybBuscH-43" edge="1">
          <mxGeometry relative="1" as="geometry" />
        </mxCell>
        <mxCell id="xR6CEr79wKUCBybBuscH-23" value="로그인 페이지" style="rounded=0;whiteSpace=wrap;html=1;" parent="WIyWlLk6GJQsqaUBKTNV-1" vertex="1">
          <mxGeometry x="450" y="240" width="120" height="40" as="geometry" />
        </mxCell>
        <mxCell id="xR6CEr79wKUCBybBuscH-32" style="edgeStyle=orthogonalEdgeStyle;rounded=0;orthogonalLoop=1;jettySize=auto;html=1;exitX=1;exitY=0.5;exitDx=0;exitDy=0;entryX=0;entryY=0.5;entryDx=0;entryDy=0;entryPerimeter=0;endArrow=classicThin;endFill=0;" parent="WIyWlLk6GJQsqaUBKTNV-1" source="xR6CEr79wKUCBybBuscH-24" target="xR6CEr79wKUCBybBuscH-17" edge="1">
          <mxGeometry relative="1" as="geometry" />
        </mxCell>
        <mxCell id="xR6CEr79wKUCBybBuscH-24" value="회원가입" style="rounded=0;whiteSpace=wrap;html=1;" parent="WIyWlLk6GJQsqaUBKTNV-1" vertex="1">
          <mxGeometry x="610" y="240" width="100" height="40" as="geometry" />
        </mxCell>
        <mxCell id="xR6CEr79wKUCBybBuscH-30" value="No" style="edgeStyle=orthogonalEdgeStyle;rounded=0;orthogonalLoop=1;jettySize=auto;html=1;exitX=1;exitY=0.5;exitDx=0;exitDy=0;entryX=0;entryY=0.5;entryDx=0;entryDy=0;endArrow=classicThin;endFill=0;" parent="WIyWlLk6GJQsqaUBKTNV-1" source="xR6CEr79wKUCBybBuscH-26" target="xR6CEr79wKUCBybBuscH-23" edge="1">
          <mxGeometry x="-0.619" y="10" relative="1" as="geometry">
            <mxPoint as="offset" />
          </mxGeometry>
        </mxCell>
        <mxCell id="xR6CEr79wKUCBybBuscH-55" style="edgeStyle=orthogonalEdgeStyle;rounded=0;orthogonalLoop=1;jettySize=auto;html=1;exitX=0.5;exitY=1;exitDx=0;exitDy=0;entryX=0.5;entryY=0;entryDx=0;entryDy=0;endArrow=classicThin;endFill=0;" parent="WIyWlLk6GJQsqaUBKTNV-1" source="xR6CEr79wKUCBybBuscH-26" target="xR6CEr79wKUCBybBuscH-54" edge="1">
          <mxGeometry relative="1" as="geometry" />
        </mxCell>
        <mxCell id="xR6CEr79wKUCBybBuscH-57" style="edgeStyle=orthogonalEdgeStyle;rounded=0;orthogonalLoop=1;jettySize=auto;html=1;exitX=0.5;exitY=1;exitDx=0;exitDy=0;entryX=0.5;entryY=0;entryDx=0;entryDy=0;endArrow=classicThin;endFill=0;" parent="WIyWlLk6GJQsqaUBKTNV-1" source="xR6CEr79wKUCBybBuscH-26" target="xR6CEr79wKUCBybBuscH-37" edge="1">
          <mxGeometry relative="1" as="geometry" />
        </mxCell>
        <mxCell id="xR6CEr79wKUCBybBuscH-59" value="Yes" style="edgeLabel;html=1;align=center;verticalAlign=middle;resizable=0;points=[];" parent="xR6CEr79wKUCBybBuscH-57" vertex="1" connectable="0">
          <mxGeometry x="-0.7117" y="1" relative="1" as="geometry">
            <mxPoint x="-1" y="12" as="offset" />
          </mxGeometry>
        </mxCell>
        <mxCell id="xR6CEr79wKUCBybBuscH-26" value="로그인 &lt;br&gt;상태?" style="rhombus;whiteSpace=wrap;html=1;" parent="WIyWlLk6GJQsqaUBKTNV-1" vertex="1">
          <mxGeometry x="160" y="220" width="80" height="80" as="geometry" />
        </mxCell>
        <mxCell id="xR6CEr79wKUCBybBuscH-75" style="edgeStyle=orthogonalEdgeStyle;rounded=0;orthogonalLoop=1;jettySize=auto;html=1;exitX=0.5;exitY=1;exitDx=0;exitDy=0;entryX=0.5;entryY=0;entryDx=0;entryDy=0;endArrow=classicThin;endFill=0;" parent="WIyWlLk6GJQsqaUBKTNV-1" source="xR6CEr79wKUCBybBuscH-37" target="xR6CEr79wKUCBybBuscH-42" edge="1">
          <mxGeometry relative="1" as="geometry" />
        </mxCell>
        <mxCell id="xR6CEr79wKUCBybBuscH-86" style="edgeStyle=orthogonalEdgeStyle;rounded=0;orthogonalLoop=1;jettySize=auto;html=1;exitX=0.5;exitY=1;exitDx=0;exitDy=0;endArrow=classicThin;endFill=0;" parent="WIyWlLk6GJQsqaUBKTNV-1" source="xR6CEr79wKUCBybBuscH-37" target="xR6CEr79wKUCBybBuscH-84" edge="1">
          <mxGeometry relative="1" as="geometry" />
        </mxCell>
        <mxCell id="xR6CEr79wKUCBybBuscH-87" style="edgeStyle=orthogonalEdgeStyle;rounded=0;orthogonalLoop=1;jettySize=auto;html=1;exitX=0.5;exitY=1;exitDx=0;exitDy=0;endArrow=classicThin;endFill=0;" parent="WIyWlLk6GJQsqaUBKTNV-1" source="xR6CEr79wKUCBybBuscH-37" target="xR6CEr79wKUCBybBuscH-85" edge="1">
          <mxGeometry relative="1" as="geometry" />
        </mxCell>
        <mxCell id="xR6CEr79wKUCBybBuscH-37" value="분석 과제&lt;br&gt;(7, 8, 11)" style="rounded=0;whiteSpace=wrap;html=1;" parent="WIyWlLk6GJQsqaUBKTNV-1" vertex="1">
          <mxGeometry x="150" y="430" width="100" height="40" as="geometry" />
        </mxCell>
        <mxCell id="xR6CEr79wKUCBybBuscH-42" value="소비 권역 분석&lt;br&gt;&amp;nbsp;(7)" style="rounded=0;whiteSpace=wrap;html=1;" parent="WIyWlLk6GJQsqaUBKTNV-1" vertex="1">
          <mxGeometry x="57.5" y="530" width="87.5" height="40" as="geometry" />
        </mxCell>
        <mxCell id="xR6CEr79wKUCBybBuscH-45" style="edgeStyle=orthogonalEdgeStyle;rounded=0;orthogonalLoop=1;jettySize=auto;html=1;exitX=0.5;exitY=0;exitDx=0;exitDy=0;entryX=1;entryY=0.5;entryDx=0;entryDy=0;endArrow=classicThin;endFill=0;" parent="WIyWlLk6GJQsqaUBKTNV-1" source="xR6CEr79wKUCBybBuscH-43" target="xR6CEr79wKUCBybBuscH-20" edge="1">
          <mxGeometry relative="1" as="geometry" />
        </mxCell>
        <mxCell id="xR6CEr79wKUCBybBuscH-50" value="Yes" style="edgeLabel;html=1;align=center;verticalAlign=middle;resizable=0;points=[];" parent="xR6CEr79wKUCBybBuscH-45" vertex="1" connectable="0">
          <mxGeometry x="-0.1739" relative="1" as="geometry">
            <mxPoint x="113" y="10" as="offset" />
          </mxGeometry>
        </mxCell>
        <mxCell id="xR6CEr79wKUCBybBuscH-47" value="No" style="edgeStyle=orthogonalEdgeStyle;rounded=0;orthogonalLoop=1;jettySize=auto;html=1;exitX=0.5;exitY=1;exitDx=0;exitDy=0;endArrow=classicThin;endFill=0;entryX=0.659;entryY=-0.01;entryDx=0;entryDy=0;entryPerimeter=0;" parent="WIyWlLk6GJQsqaUBKTNV-1" source="xR6CEr79wKUCBybBuscH-43" target="xR6CEr79wKUCBybBuscH-23" edge="1">
          <mxGeometry relative="1" as="geometry">
            <mxPoint x="528" y="237" as="targetPoint" />
          </mxGeometry>
        </mxCell>
        <mxCell id="xR6CEr79wKUCBybBuscH-43" value="ID/PW&lt;br&gt;체크" style="rhombus;whiteSpace=wrap;html=1;" parent="WIyWlLk6GJQsqaUBKTNV-1" vertex="1">
          <mxGeometry x="490" y="100" width="80" height="80" as="geometry" />
        </mxCell>
        <mxCell id="xR6CEr79wKUCBybBuscH-83" style="edgeStyle=orthogonalEdgeStyle;rounded=0;orthogonalLoop=1;jettySize=auto;html=1;exitX=0;exitY=0.5;exitDx=0;exitDy=0;entryX=0;entryY=0.5;entryDx=0;entryDy=0;endArrow=classicThin;endFill=0;" parent="WIyWlLk6GJQsqaUBKTNV-1" source="xR6CEr79wKUCBybBuscH-51" target="xR6CEr79wKUCBybBuscH-37" edge="1">
          <mxGeometry relative="1" as="geometry">
            <Array as="points">
              <mxPoint x="40" y="660" />
              <mxPoint x="40" y="450" />
            </Array>
          </mxGeometry>
        </mxCell>
        <mxCell id="xR6CEr79wKUCBybBuscH-51" value="과정 수료&lt;br&gt;안내문" style="rounded=0;whiteSpace=wrap;html=1;" parent="WIyWlLk6GJQsqaUBKTNV-1" vertex="1">
          <mxGeometry x="150" y="640" width="100" height="40" as="geometry" />
        </mxCell>
        <mxCell id="xR6CEr79wKUCBybBuscH-56" value="" style="edgeStyle=orthogonalEdgeStyle;rounded=0;orthogonalLoop=1;jettySize=auto;html=1;endArrow=classicThin;endFill=0;" parent="WIyWlLk6GJQsqaUBKTNV-1" source="xR6CEr79wKUCBybBuscH-54" target="xR6CEr79wKUCBybBuscH-37" edge="1">
          <mxGeometry relative="1" as="geometry" />
        </mxCell>
        <mxCell id="xR6CEr79wKUCBybBuscH-54" value="마이페이지" style="rounded=0;whiteSpace=wrap;html=1;" parent="WIyWlLk6GJQsqaUBKTNV-1" vertex="1">
          <mxGeometry x="300" y="430" width="100" height="40" as="geometry" />
        </mxCell>
        <mxCell id="xR6CEr79wKUCBybBuscH-66" value="회원 이름" style="rounded=1;whiteSpace=wrap;html=1;" parent="WIyWlLk6GJQsqaUBKTNV-1" vertex="1">
          <mxGeometry x="860" y="240" width="100" height="40" as="geometry" />
        </mxCell>
        <mxCell id="xR6CEr79wKUCBybBuscH-67" value="소속" style="rounded=1;whiteSpace=wrap;html=1;" parent="WIyWlLk6GJQsqaUBKTNV-1" vertex="1">
          <mxGeometry x="860" y="290" width="100" height="40" as="geometry" />
        </mxCell>
        <mxCell id="xR6CEr79wKUCBybBuscH-68" value="성별" style="rounded=1;whiteSpace=wrap;html=1;" parent="WIyWlLk6GJQsqaUBKTNV-1" vertex="1">
          <mxGeometry x="860" y="340" width="100" height="40" as="geometry" />
        </mxCell>
        <mxCell id="xR6CEr79wKUCBybBuscH-69" value="생년월일" style="rounded=1;whiteSpace=wrap;html=1;" parent="WIyWlLk6GJQsqaUBKTNV-1" vertex="1">
          <mxGeometry x="860" y="390" width="100" height="40" as="geometry" />
        </mxCell>
        <mxCell id="xR6CEr79wKUCBybBuscH-70" value="이메일" style="rounded=1;whiteSpace=wrap;html=1;" parent="WIyWlLk6GJQsqaUBKTNV-1" vertex="1">
          <mxGeometry x="860" y="440" width="100" height="40" as="geometry" />
        </mxCell>
        <mxCell id="xR6CEr79wKUCBybBuscH-88" style="edgeStyle=orthogonalEdgeStyle;rounded=0;orthogonalLoop=1;jettySize=auto;html=1;exitX=0.5;exitY=1;exitDx=0;exitDy=0;entryX=0.5;entryY=0;entryDx=0;entryDy=0;endArrow=classicThin;endFill=0;" parent="WIyWlLk6GJQsqaUBKTNV-1" source="xR6CEr79wKUCBybBuscH-84" target="xR6CEr79wKUCBybBuscH-51" edge="1">
          <mxGeometry relative="1" as="geometry" />
        </mxCell>
        <mxCell id="xR6CEr79wKUCBybBuscH-84" value="대중교통&lt;br&gt;(8)" style="rounded=0;whiteSpace=wrap;html=1;" parent="WIyWlLk6GJQsqaUBKTNV-1" vertex="1">
          <mxGeometry x="156.25" y="530" width="87.5" height="40" as="geometry" />
        </mxCell>
        <mxCell id="xR6CEr79wKUCBybBuscH-85" value="불법 주정차&lt;br&gt;(11)" style="rounded=0;whiteSpace=wrap;html=1;" parent="WIyWlLk6GJQsqaUBKTNV-1" vertex="1">
          <mxGeometry x="255" y="530" width="87.5" height="40" as="geometry" />
        </mxCell>
      </root>
    </mxGraphModel>
  </diagram>
</mxfile>
